<svg xmlns="http://www.w3.org/2000/svg" xmlns:xlink="http://www.w3.org/1999/xlink" viewBox="0 0 48 48" version="1.1">
    <g id="surface1">
        <path style=" fill:#E3F2FD;" d="M 34 22 L 34 18 L 26 20 L 29 14 L 26 15 L 25.300781 10 L 14 10 L 11 12 L 7 25 L 39 25 L 38.601563 20.300781 Z "></path>
        <path style=" fill:#455A64;" d="M 10 38 C 10 38.601563 9.601563 39 9 39 L 5 39 C 4.398438 39 4 38.601563 4 38 L 4 32 C 4 31.398438 4.398438 31 5 31 L 9 31 C 9.601563 31 10 31.398438 10 32 Z M 42 32.199219 C 42.101563 31.699219 41.699219 31.101563 41.199219 31.101563 L 37.199219 30.5 C 36.699219 30.398438 36.101563 30.800781 36.101563 31.300781 L 35.199219 37.199219 C 35.101563 37.699219 35.5 38.300781 36 38.300781 L 40 38.898438 C 40.5 39 41.101563 38.601563 41.101563 38.101563 Z "></path>
        <path style=" fill:#AB47BC;" d="M 45.300781 22.199219 L 41 20.601563 L 40 23.398438 C 40 23.5 40 23.5 39.898438 23.601563 C 39.101563 22.699219 39 22 39 22 C 39 21.300781 39.199219 20.199219 39.699219 19.398438 L 39.800781 19.199219 C 40.101563 18.800781 40.398438 18.199219 40.398438 17.5 C 40.398438 16 39 14.898438 37.601563 14.800781 C 36.898438 14.699219 36.300781 14.800781 35.699219 14.898438 C 35.398438 14.898438 35 15 34.699219 15 C 34.101563 15 33.398438 14.800781 33.300781 14.398438 C 33.199219 14.199219 33.199219 14 33.199219 13.699219 C 33.199219 13.398438 33.199219 13.101563 33.101563 12.800781 C 32.601563 10.398438 24.898438 9.300781 19.101563 9.101563 L 14.601563 9.101563 C 11 9.101563 9 13.601563 8.101563 18.601563 C 8 19.101563 7.898438 19.601563 7.800781 20.101563 L 3 20.101563 C 2.398438 20.101563 2 20.5 2 21.101563 L 2 23.101563 C 2 23.699219 2.398438 24.101563 3 24.101563 L 4.601563 24.101563 C 4.300781 24.601563 4 25.398438 4 26 L 4 34 C 4 34.601563 4.398438 35 5 35 L 41 35 C 41.601563 35 42 34.800781 42 34 C 42 30.199219 43 31.898438 43 29 C 43 27.398438 42.398438 26 41.699219 25.101563 L 44 25.898438 C 44.5 26.101563 45.101563 25.800781 45.300781 25.300781 L 46 23.398438 C 46.101563 22.898438 45.898438 22.398438 45.300781 22.199219 Z M 9.398438 22.199219 C 9.5 21.398438 9.699219 20.300781 10 18.800781 C 10.800781 14.300781 12.300781 10.898438 14.5 10.898438 L 18 10.898438 C 25.199219 10.898438 30.398438 12.300781 31.101563 13.101563 C 31.101563 13.300781 31.101563 13.398438 31.101563 13.601563 C 31.101563 14 31.101563 14.5 31.300781 14.898438 C 31.800781 16 33.101563 16.699219 34.601563 16.699219 C 35 16.699219 35.398438 16.601563 35.800781 16.601563 C 36.300781 16.5 36.800781 16.5 37.199219 16.5 C 37.699219 16.601563 38.199219 16.898438 38.199219 17.199219 C 38.199219 17.398438 38 17.699219 37.898438 18 L 37.699219 18.300781 C 37.199219 19.199219 36.699219 20.699219 36.800781 22 C 36.800781 22.101563 36.898438 22.898438 37.398438 23.800781 C 27.398438 20.5 17.5 27.601563 9.398438 22.199219 Z "></path>
        <path style=" fill:#212121;" d="M 40 31 C 40 31.601563 39.601563 32 39 32 L 7 32 C 6.398438 32 6 31.601563 6 31 L 6 28 C 6 27.398438 6.398438 27 7 27 L 39 27 C 39.601563 27 40 27.398438 40 28 Z "></path>
        <path style=" fill:#FFEB3B;" d="M 10 29.5 C 10 30.328125 9.328125 31 8.5 31 C 7.671875 31 7 30.328125 7 29.5 C 7 28.671875 7.671875 28 8.5 28 C 9.328125 28 10 28.671875 10 29.5 Z "></path>
        <path style=" fill:#78909C;" d="M 39 29.5 C 39 30.328125 38.328125 31 37.5 31 C 36.671875 31 36 30.328125 36 29.5 C 36 28.671875 36.671875 28 37.5 28 C 38.328125 28 39 28.671875 39 29.5 Z "></path>
    </g>
</svg>
